<?xml version="1.0" encoding="UTF-8" standalone="no"?>
<!DOCTYPE svg PUBLIC "-//W3C//DTD SVG 1.1//EN"
 "http://www.w3.org/Graphics/SVG/1.1/DTD/svg11.dtd">
<!-- Generated by graphviz version 15.0.0 (20260523.1842)
 -->
<!-- Title: digest Pages: 1 -->
<svg width="402pt" height="561pt"
 viewBox="0.00 0.00 402.00 561.00" xmlns="http://www.w3.org/2000/svg" xmlns:xlink="http://www.w3.org/1999/xlink">
<g id="graph0" class="graph" transform="scale(1 1) rotate(0) translate(21.6 539.6)">
<title>digest</title>
<polygon fill="white" stroke="none" points="-21.6,21.6 -21.6,-539.6 380.1,-539.6 380.1,21.6 -21.6,21.6"/>
<g id="clust1" class="cluster">
<title>cluster_cc</title>
<path fill="#e6f1fb" stroke="black" d="M25.25,-8C25.25,-8 135.25,-8 135.25,-8 141.25,-8 147.25,-14 147.25,-20 147.25,-20 147.25,-176 147.25,-176 147.25,-182 141.25,-188 135.25,-188 135.25,-188 25.25,-188 25.25,-188 19.25,-188 13.25,-182 13.25,-176 13.25,-176 13.25,-20 13.25,-20 13.25,-14 19.25,-8 25.25,-8"/>
<text xml:space="preserve" text-anchor="middle" x="80.25" y="-173.55" font-family="Helvetica,sans-Serif" font-size="11.00" fill="#0c447c">Claude Code 2.1.195</text>
</g>
<g id="clust2" class="cluster">
<title>cluster_res</title>
<path fill="#eeedfe" stroke="black" d="M20,-196C20,-196 140.5,-196 140.5,-196 146.5,-196 152.5,-202 152.5,-208 152.5,-208 152.5,-310 152.5,-310 152.5,-316 146.5,-322 140.5,-322 140.5,-322 20,-322 20,-322 14,-322 8,-316 8,-310 8,-310 8,-208 8,-208 8,-202 14,-196 20,-196"/>
<text xml:space="preserve" text-anchor="middle" x="80.25" y="-307.55" font-family="Helvetica,sans-Serif" font-size="11.00" fill="#3c3489">Research</text>
</g>
<g id="clust3" class="cluster">
<title>cluster_tool</title>
<path fill="#e1f5ee" stroke="black" d="M29,-330C29,-330 131.5,-330 131.5,-330 137.5,-330 143.5,-336 143.5,-342 143.5,-342 143.5,-498 143.5,-498 143.5,-504 137.5,-510 131.5,-510 131.5,-510 29,-510 29,-510 23,-510 17,-504 17,-498 17,-498 17,-342 17,-342 17,-336 23,-330 29,-330"/>
<text xml:space="preserve" text-anchor="middle" x="80.25" y="-495.55" font-family="Helvetica,sans-Serif" font-size="11.00" fill="#085041">Tools / plugins</text>
</g>
<!-- cc1 -->
<g id="node1" class="node">
<title>cc1</title>
<path fill="#ffffff" stroke="#d0d0d0" d="M127.25,-52C127.25,-52 33.25,-52 33.25,-52 27.25,-52 21.25,-46 21.25,-40 21.25,-40 21.25,-28 21.25,-28 21.25,-22 27.25,-16 33.25,-16 33.25,-16 127.25,-16 127.25,-16 133.25,-16 139.25,-22 139.25,-28 139.25,-28 139.25,-40 139.25,-40 139.25,-46 133.25,-52 127.25,-52"/>
<text xml:space="preserve" text-anchor="middle" x="80.25" y="-35.55" font-family="Helvetica,sans-Serif" font-size="11.00" fill="#0c447c">param&#45;scoped perms</text>
<text xml:space="preserve" text-anchor="middle" x="80.25" y="-23.55" font-family="Helvetica,sans-Serif" font-size="11.00" fill="#0c447c">Agent(model:opus)</text>
</g>
<!-- n3 -->
<g id="node11" class="node">
<title>n3</title>
<polygon fill="#faeeda" stroke="#d0d0d0" points="345,-52 262.25,-52 262.25,-16 351,-16 351,-46 345,-52"/>
<polyline fill="none" stroke="#d0d0d0" points="345,-52 345,-46"/>
<polyline fill="none" stroke="#d0d0d0" points="351,-46 345,-46"/>
<text xml:space="preserve" text-anchor="middle" x="306.62" y="-35.55" font-family="Helvetica,sans-Serif" font-size="11.00" fill="#633806">settings.json</text>
<text xml:space="preserve" text-anchor="middle" x="306.62" y="-23.55" font-family="Helvetica,sans-Serif" font-size="11.00" fill="#633806">(tighten perms)</text>
</g>
<!-- cc1&#45;&gt;n3 -->
<g id="edge3" class="edge">
<title>cc1&#45;&gt;n3</title>
<path fill="none" stroke="#888888" d="M139.62,-34C173.88,-34 216.92,-34 250.59,-34"/>
<polygon fill="#888888" stroke="#888888" points="250.57,-37.5 260.57,-34 250.57,-30.5 250.57,-37.5"/>
<text xml:space="preserve" text-anchor="middle" x="199.62" y="-35.2" font-family="Helvetica,sans-Serif" font-size="9.00" fill="#555555">could adopt</text>
</g>
<!-- cc2 -->
<g id="node2" class="node">
<title>cc2</title>
<path fill="#ffffff" stroke="#d0d0d0" d="M123.88,-106C123.88,-106 36.62,-106 36.62,-106 30.63,-106 24.62,-100 24.62,-94 24.62,-94 24.62,-82 24.62,-82 24.62,-76 30.62,-70 36.62,-70 36.62,-70 123.88,-70 123.88,-70 129.88,-70 135.88,-76 135.88,-82 135.88,-82 135.88,-94 135.88,-94 135.88,-100 129.88,-106 123.88,-106"/>
<text xml:space="preserve" text-anchor="middle" x="80.25" y="-89.55" font-family="Helvetica,sans-Serif" font-size="11.00" fill="#0c447c">nested .claude/skills</text>
<text xml:space="preserve" text-anchor="middle" x="80.25" y="-77.55" font-family="Helvetica,sans-Serif" font-size="11.00" fill="#0c447c">&lt;dir&gt;:&lt;name&gt;</text>
</g>
<!-- cc3 -->
<g id="node3" class="node">
<title>cc3</title>
<path fill="#ffffff" stroke="#d0d0d0" d="M95.25,-160C95.25,-160 65.25,-160 65.25,-160 59.25,-160 53.25,-154 53.25,-148 53.25,-148 53.25,-136 53.25,-136 53.25,-130 59.25,-124 65.25,-124 65.25,-124 95.25,-124 95.25,-124 101.25,-124 107.25,-130 107.25,-136 107.25,-136 107.25,-148 107.25,-148 107.25,-154 101.25,-160 95.25,-160"/>
<text xml:space="preserve" text-anchor="middle" x="80.25" y="-137.55" font-family="Helvetica,sans-Serif" font-size="11.00" fill="#0c447c">/rewind</text>
</g>
<!-- r1 -->
<g id="node4" class="node">
<title>r1</title>
<path fill="#ffffff" stroke="#d0d0d0" d="M132.5,-294C132.5,-294 28,-294 28,-294 22,-294 16,-288 16,-282 16,-282 16,-270 16,-270 16,-264 22,-258 28,-258 28,-258 132.5,-258 132.5,-258 138.5,-258 144.5,-264 144.5,-270 144.5,-270 144.5,-282 144.5,-282 144.5,-288 138.5,-294 132.5,-294"/>
<text xml:space="preserve" text-anchor="middle" x="80.25" y="-277.55" font-family="Helvetica,sans-Serif" font-size="11.00" fill="#3c3489">HarnessFix</text>
<text xml:space="preserve" text-anchor="middle" x="80.25" y="-265.55" font-family="Helvetica,sans-Serif" font-size="11.00" fill="#3c3489">(ETCLOVG, +15–50%)</text>
</g>
<!-- n1 -->
<g id="node9" class="node">
<title>n1</title>
<polygon fill="#faeeda" stroke="#d0d0d0" points="352.5,-294 254.75,-294 254.75,-258 358.5,-258 358.5,-288 352.5,-294"/>
<polyline fill="none" stroke="#d0d0d0" points="352.5,-294 352.5,-288"/>
<polyline fill="none" stroke="#d0d0d0" points="358.5,-288 352.5,-288"/>
<text xml:space="preserve" text-anchor="middle" x="306.62" y="-271.55" font-family="Helvetica,sans-Serif" font-size="11.00" fill="#633806">linting&#45;and&#45;scoring</text>
</g>
<!-- r1&#45;&gt;n1 -->
<g id="edge1" class="edge">
<title>r1&#45;&gt;n1</title>
<path fill="none" stroke="#888888" d="M144.95,-276C175.74,-276 212.56,-276 243.18,-276"/>
<polygon fill="#888888" stroke="#888888" points="243.07,-279.5 253.07,-276 243.07,-272.5 243.07,-279.5"/>
<text xml:space="preserve" text-anchor="middle" x="199.62" y="-277.2" font-family="Helvetica,sans-Serif" font-size="9.00" fill="#555555">diagnose&#45;by&#45;layer</text>
</g>
<!-- r2 -->
<g id="node5" class="node">
<title>r2</title>
<path fill="#ffffff" stroke="#d0d0d0" d="M116,-240C116,-240 44.5,-240 44.5,-240 38.5,-240 32.5,-234 32.5,-228 32.5,-228 32.5,-216 32.5,-216 32.5,-210 38.5,-204 44.5,-204 44.5,-204 116,-204 116,-204 122,-204 128,-210 128,-216 128,-216 128,-228 128,-228 128,-234 122,-240 116,-240"/>
<text xml:space="preserve" text-anchor="middle" x="80.25" y="-223.55" font-family="Helvetica,sans-Serif" font-size="11.00" fill="#3c3489">Beyond pass@1</text>
<text xml:space="preserve" text-anchor="middle" x="80.25" y="-211.55" font-family="Helvetica,sans-Serif" font-size="11.00" fill="#3c3489">(19% meltdown)</text>
</g>
<!-- n2 -->
<g id="node10" class="node">
<title>n2</title>
<polygon fill="#faeeda" stroke="#d0d0d0" points="348,-240 259.25,-240 259.25,-204 354,-204 354,-234 348,-240"/>
<polyline fill="none" stroke="#d0d0d0" points="348,-240 348,-234"/>
<polyline fill="none" stroke="#d0d0d0" points="354,-234 348,-234"/>
<text xml:space="preserve" text-anchor="middle" x="306.62" y="-223.55" font-family="Helvetica,sans-Serif" font-size="11.00" fill="#633806">goal&#45;spec /</text>
<text xml:space="preserve" text-anchor="middle" x="306.62" y="-211.55" font-family="Helvetica,sans-Serif" font-size="11.00" fill="#633806">verifiability ethos</text>
</g>
<!-- r2&#45;&gt;n2 -->
<g id="edge2" class="edge">
<title>r2&#45;&gt;n2</title>
<path fill="none" stroke="#888888" d="M128.29,-222C163.11,-222 210.74,-222 247.87,-222"/>
<polygon fill="#888888" stroke="#888888" points="247.52,-225.5 257.52,-222 247.52,-218.5 247.52,-225.5"/>
<text xml:space="preserve" text-anchor="middle" x="199.62" y="-223.2" font-family="Helvetica,sans-Serif" font-size="9.00" fill="#555555">reinforces</text>
</g>
<!-- t1 -->
<g id="node6" class="node">
<title>t1</title>
<path fill="#ffffff" stroke="#d0d0d0" d="M117.12,-374C117.12,-374 43.38,-374 43.38,-374 37.37,-374 31.38,-368 31.38,-362 31.38,-362 31.38,-350 31.38,-350 31.38,-344 37.38,-338 43.38,-338 43.38,-338 117.12,-338 117.12,-338 123.12,-338 129.12,-344 129.12,-350 129.12,-350 129.12,-362 129.12,-362 129.12,-368 123.12,-374 117.12,-374"/>
<text xml:space="preserve" text-anchor="middle" x="80.25" y="-357.55" font-family="Helvetica,sans-Serif" font-size="11.00" fill="#085041">pstack Benny</text>
<text xml:space="preserve" text-anchor="middle" x="80.25" y="-345.55" font-family="Helvetica,sans-Serif" font-size="11.00" fill="#085041">issue&#45;automation</text>
</g>
<!-- t2 -->
<g id="node7" class="node">
<title>t2</title>
<path fill="#ffffff" stroke="#d0d0d0" d="M108.88,-428C108.88,-428 51.62,-428 51.62,-428 45.63,-428 39.62,-422 39.62,-416 39.62,-416 39.62,-404 39.62,-404 39.62,-398 45.62,-392 51.62,-392 51.62,-392 108.88,-392 108.88,-392 114.88,-392 120.88,-398 120.88,-404 120.88,-404 120.88,-416 120.88,-416 120.88,-422 114.88,-428 108.88,-428"/>
<text xml:space="preserve" text-anchor="middle" x="80.25" y="-405.55" font-family="Helvetica,sans-Serif" font-size="11.00" fill="#085041">tavily + canva</text>
</g>
<!-- t3 -->
<g id="node8" class="node">
<title>t3</title>
<path fill="#ffffff" stroke="#d0d0d0" d="M123.5,-482C123.5,-482 37,-482 37,-482 31,-482 25,-476 25,-470 25,-470 25,-458 25,-458 25,-452 31,-446 37,-446 37,-446 123.5,-446 123.5,-446 129.5,-446 135.5,-452 135.5,-458 135.5,-458 135.5,-470 135.5,-470 135.5,-476 129.5,-482 123.5,-482"/>
<text xml:space="preserve" text-anchor="middle" x="80.25" y="-459.55" font-family="Helvetica,sans-Serif" font-size="11.00" fill="#085041">superpowers v6.0.3</text>
</g>
</g>
</svg>
